<svg xmlns="http://www.w3.org/2000/svg" width="184" height="41" viewBox="0 0 184 41">
    <path fill="#252525" fill-rule="evenodd" d="M13.537 13.019c3.936 0 7.146 1.82 8.9 4.75 2.258-3.787 6.248-4.75 9.457-4.75 6.12 0 10.491 4.339 10.491 10.54v16.663h-5.67V25.483c0-4.45-2.237-6.975-6.01-6.975-3.645 0-6.69 2.463-6.69 6.975v14.74h-5.657v-14.74c0-4.45-2.244-6.975-6.017-6.975-3.638 0-6.684 2.463-6.684 6.975v14.74H0V23.334C1.21 12.085 13.537 13.02 13.537 13.02zm39.998 13.98c0 5.027 3.48 8.527 8.086 8.527 4.607 0 8.113-3.5 8.113-8.526s-3.506-8.512-8.113-8.512c-4.607 0-8.086 3.5-8.086 8.512zm21.988 0C75.523 34.973 69.598 41 61.62 41c-7.977 0-13.841-6.02-13.841-14s5.864-14 13.84-14c7.978 0 13.903 6.04 13.903 14zm11.952 0c0 5.027 3.467 8.527 8.067 8.527s8.101-3.5 8.101-8.526-3.494-8.512-8.101-8.512c-4.606 0-8.067 3.5-8.067 8.512zm21.956 0c0 7.973-5.923 14.001-13.89 14.001-7.964 0-13.853-6.02-13.853-14s5.896-14 13.854-14c7.959 0 13.89 6.04 13.89 14zM127.145 13c11.236 0 11.57 10.547 11.57 10.547v16.675h-5.45V25.473c0-4.453-2.487-6.98-6.12-6.98-3.5 0-6.105 2.464-6.105 6.98v14.75h-5.444V23.47S115.91 13 127.146 13zm37.873 7.349a15.646 15.646 0 0 0-7.806-2.28c-3.009 0-4.78 1.276-4.78 3.171 0 1.896 1.845 2.394 4.167 2.752l2.616.422c5.518.834 8.785 3.312 8.785 7.875 0 5.124-4.22 8.711-11.508 8.711-2.608 0-7.148-.527-10.84-3.425l2.555-4.366c1.824 1.474 4.226 2.723 8.34 2.723 3.773 0 5.756-1.25 5.756-3.257 0-1.502-1.37-2.498-4.38-2.948l-2.661-.365c-5.598-.807-8.58-3.51-8.58-7.82 0-5.285 3.994-8.542 10.456-8.542 3.954 0 7.628 1.032 10.237 2.808l-2.357 4.541zM181.643 9.7c-2.134 2.081-5.286 2.824-8.161 1.923-2.876-.901-4.99-3.294-5.476-6.196a.327.327 0 0 1 .173-.35.346.346 0 0 1 .396.053c2.236 2.06 5.477 2.714 8.37 1.688 2.895-1.023 4.948-3.551 5.3-6.53a.342.342 0 0 1 .628-.125c1.877 3.08 1.37 7.005-1.23 9.537z"/>
</svg>
